<mxfile host="app.diagrams.net" modified="2022-04-27T13:51:51.007Z" agent="5.0 (Windows NT 10.0; Win64; x64) AppleWebKit/537.36 (KHTML, like Gecko) Chrome/100.0.4896.127 Safari/537.36 Edg/100.0.1185.50" etag="PwKUUBXdKTtzOwwMDQAI" version="17.4.6" type="github">
  <diagram id="t4DbGcCUbiW-N-8F6hRT" name="Page-1">
    <mxGraphModel dx="1038" dy="579" grid="1" gridSize="10" guides="1" tooltips="1" connect="1" arrows="1" fold="1" page="1" pageScale="1" pageWidth="850" pageHeight="1100" math="0" shadow="0">
      <root>
        <mxCell id="0" />
        <mxCell id="1" parent="0" />
        <mxCell id="Mh2tTTix0QVTllgxc-Cp-3" value="" style="edgeStyle=orthogonalEdgeStyle;rounded=0;orthogonalLoop=1;jettySize=auto;html=1;" edge="1" parent="1" source="Mh2tTTix0QVTllgxc-Cp-1" target="Mh2tTTix0QVTllgxc-Cp-2">
          <mxGeometry relative="1" as="geometry" />
        </mxCell>
        <mxCell id="Mh2tTTix0QVTllgxc-Cp-1" value="start" style="rounded=1;whiteSpace=wrap;html=1;" vertex="1" parent="1">
          <mxGeometry x="310" y="30" width="90" height="30" as="geometry" />
        </mxCell>
        <mxCell id="Mh2tTTix0QVTllgxc-Cp-5" value="" style="edgeStyle=orthogonalEdgeStyle;rounded=0;orthogonalLoop=1;jettySize=auto;html=1;" edge="1" parent="1" source="Mh2tTTix0QVTllgxc-Cp-2" target="Mh2tTTix0QVTllgxc-Cp-4">
          <mxGeometry relative="1" as="geometry" />
        </mxCell>
        <mxCell id="Mh2tTTix0QVTllgxc-Cp-2" value="FOR all arena roads" style="rhombus;whiteSpace=wrap;html=1;" vertex="1" parent="1">
          <mxGeometry x="315" y="90" width="80" height="80" as="geometry" />
        </mxCell>
        <mxCell id="Mh2tTTix0QVTllgxc-Cp-7" value="" style="edgeStyle=orthogonalEdgeStyle;rounded=0;orthogonalLoop=1;jettySize=auto;html=1;" edge="1" parent="1" source="Mh2tTTix0QVTllgxc-Cp-4" target="Mh2tTTix0QVTllgxc-Cp-6">
          <mxGeometry relative="1" as="geometry">
            <Array as="points">
              <mxPoint x="430" y="240" />
              <mxPoint x="430" y="50" />
            </Array>
          </mxGeometry>
        </mxCell>
        <mxCell id="Mh2tTTix0QVTllgxc-Cp-4" value="FOR each road points" style="rhombus;whiteSpace=wrap;html=1;" vertex="1" parent="1">
          <mxGeometry x="315" y="200" width="80" height="80" as="geometry" />
        </mxCell>
        <mxCell id="Mh2tTTix0QVTllgxc-Cp-9" value="" style="edgeStyle=orthogonalEdgeStyle;rounded=0;orthogonalLoop=1;jettySize=auto;html=1;" edge="1" parent="1" source="Mh2tTTix0QVTllgxc-Cp-6" target="Mh2tTTix0QVTllgxc-Cp-8">
          <mxGeometry relative="1" as="geometry" />
        </mxCell>
        <mxCell id="Mh2tTTix0QVTllgxc-Cp-6" value="IF road point is busstop or supply drop" style="rhombus;whiteSpace=wrap;html=1;" vertex="1" parent="1">
          <mxGeometry x="460" y="10" width="80" height="80" as="geometry" />
        </mxCell>
        <mxCell id="Mh2tTTix0QVTllgxc-Cp-11" value="" style="edgeStyle=orthogonalEdgeStyle;rounded=0;orthogonalLoop=1;jettySize=auto;html=1;" edge="1" parent="1" source="Mh2tTTix0QVTllgxc-Cp-8" target="Mh2tTTix0QVTllgxc-Cp-10">
          <mxGeometry relative="1" as="geometry" />
        </mxCell>
        <mxCell id="Mh2tTTix0QVTllgxc-Cp-17" value="" style="edgeStyle=orthogonalEdgeStyle;rounded=0;orthogonalLoop=1;jettySize=auto;html=1;" edge="1" parent="1" source="Mh2tTTix0QVTllgxc-Cp-8" target="Mh2tTTix0QVTllgxc-Cp-13">
          <mxGeometry relative="1" as="geometry" />
        </mxCell>
        <mxCell id="Mh2tTTix0QVTllgxc-Cp-8" value="IF bustop array don&#39;t have thisroad" style="rhombus;whiteSpace=wrap;html=1;" vertex="1" parent="1">
          <mxGeometry x="460" y="130" width="80" height="80" as="geometry" />
        </mxCell>
        <mxCell id="Mh2tTTix0QVTllgxc-Cp-10" value="create a object against the road" style="whiteSpace=wrap;html=1;" vertex="1" parent="1">
          <mxGeometry x="600" y="140" width="120" height="60" as="geometry" />
        </mxCell>
        <mxCell id="Mh2tTTix0QVTllgxc-Cp-12" value="" style="edgeStyle=orthogonalEdgeStyle;rounded=0;orthogonalLoop=1;jettySize=auto;html=1;" edge="1" parent="1" source="Mh2tTTix0QVTllgxc-Cp-13" target="Mh2tTTix0QVTllgxc-Cp-14">
          <mxGeometry relative="1" as="geometry" />
        </mxCell>
        <mxCell id="Mh2tTTix0QVTllgxc-Cp-21" value="" style="edgeStyle=orthogonalEdgeStyle;rounded=0;orthogonalLoop=1;jettySize=auto;html=1;" edge="1" parent="1" source="Mh2tTTix0QVTllgxc-Cp-13" target="Mh2tTTix0QVTllgxc-Cp-19">
          <mxGeometry relative="1" as="geometry" />
        </mxCell>
        <mxCell id="Mh2tTTix0QVTllgxc-Cp-13" value="IF bustop array don&#39;t have this road point" style="rhombus;whiteSpace=wrap;html=1;" vertex="1" parent="1">
          <mxGeometry x="460" y="240" width="80" height="80" as="geometry" />
        </mxCell>
        <mxCell id="Mh2tTTix0QVTllgxc-Cp-14" value="create a array against the road point" style="whiteSpace=wrap;html=1;" vertex="1" parent="1">
          <mxGeometry x="600" y="250" width="120" height="60" as="geometry" />
        </mxCell>
        <mxCell id="Mh2tTTix0QVTllgxc-Cp-18" value="" style="edgeStyle=orthogonalEdgeStyle;rounded=0;orthogonalLoop=1;jettySize=auto;html=1;" edge="1" parent="1" source="Mh2tTTix0QVTllgxc-Cp-19" target="Mh2tTTix0QVTllgxc-Cp-20">
          <mxGeometry relative="1" as="geometry" />
        </mxCell>
        <mxCell id="Mh2tTTix0QVTllgxc-Cp-22" value="next road pointts" style="edgeStyle=orthogonalEdgeStyle;rounded=0;orthogonalLoop=1;jettySize=auto;html=1;entryX=0;entryY=0.5;entryDx=0;entryDy=0;" edge="1" parent="1" source="Mh2tTTix0QVTllgxc-Cp-19" target="Mh2tTTix0QVTllgxc-Cp-4">
          <mxGeometry x="-0.3846" y="-10" relative="1" as="geometry">
            <mxPoint as="offset" />
          </mxGeometry>
        </mxCell>
        <mxCell id="Mh2tTTix0QVTllgxc-Cp-23" style="edgeStyle=orthogonalEdgeStyle;rounded=0;orthogonalLoop=1;jettySize=auto;html=1;entryX=0;entryY=0.5;entryDx=0;entryDy=0;" edge="1" parent="1" source="Mh2tTTix0QVTllgxc-Cp-19" target="Mh2tTTix0QVTllgxc-Cp-2">
          <mxGeometry relative="1" as="geometry">
            <mxPoint x="300" y="130" as="targetPoint" />
            <Array as="points">
              <mxPoint x="500" y="440" />
              <mxPoint x="270" y="440" />
              <mxPoint x="270" y="130" />
            </Array>
          </mxGeometry>
        </mxCell>
        <mxCell id="Mh2tTTix0QVTllgxc-Cp-24" value="next road" style="edgeLabel;html=1;align=center;verticalAlign=middle;resizable=0;points=[];" vertex="1" connectable="0" parent="Mh2tTTix0QVTllgxc-Cp-23">
          <mxGeometry x="0.4928" y="-3" relative="1" as="geometry">
            <mxPoint x="-13" y="-38" as="offset" />
          </mxGeometry>
        </mxCell>
        <mxCell id="Mh2tTTix0QVTllgxc-Cp-19" value="IF bustop property array don&#39;t have this road point" style="rhombus;whiteSpace=wrap;html=1;" vertex="1" parent="1">
          <mxGeometry x="460" y="340" width="80" height="80" as="geometry" />
        </mxCell>
        <mxCell id="Mh2tTTix0QVTllgxc-Cp-20" value="create a array against the property road point" style="whiteSpace=wrap;html=1;" vertex="1" parent="1">
          <mxGeometry x="600" y="350" width="120" height="60" as="geometry" />
        </mxCell>
      </root>
    </mxGraphModel>
  </diagram>
</mxfile>
